<svg width="114" height="27" viewBox="0 0 114 27" fill="none" xmlns="http://www.w3.org/2000/svg">
<g clip-path="url(#clip0_467_282)">
<path d="M3.49187 7.93965C2.55774 7.93965 1.66809 7.59482 1.0231 6.94827C0.35586 6.30172 0 5.4612 0 4.55603C0 3.65086 0.35586 2.81034 1.0231 2.16379C1.69033 1.51724 2.55774 1.17241 3.49187 1.17241C4.42601 1.17241 5.29341 1.51724 5.96065 2.16379C6.62789 2.81034 6.98375 3.65086 6.98375 4.55603C6.98375 5.4612 6.62789 6.32327 5.96065 6.94827C5.31565 7.57327 4.42601 7.93965 3.49187 7.93965Z" fill="#3847EF"/>
<path d="M22.3525 7.83189C21.4184 7.83189 20.5287 7.48707 19.8837 6.84051C18.527 5.52586 18.527 3.37069 19.8837 2.05603C20.551 1.40948 21.4184 1.06465 22.3525 1.06465C23.2867 1.06465 24.1541 1.40948 24.8213 2.05603C26.178 3.37069 26.178 5.52586 24.8213 6.84051C24.1541 7.48707 23.2867 7.83189 22.3525 7.83189Z" fill="#3847EF"/>
<path d="M3.58074 26C2.64661 26 1.75696 25.6552 1.11196 25.0086C0.444727 24.3621 0.0888672 23.5216 0.0888672 22.6164C0.0888672 21.7112 0.444727 20.8707 1.11196 20.2241C1.24541 20.0948 1.4011 19.9655 1.60127 19.8362C1.66799 19.7931 1.73472 19.75 1.7792 19.7284C1.91265 19.6638 2.0461 19.5991 2.1573 19.5345C2.22403 19.5129 2.29075 19.4698 2.35747 19.4483C2.49092 19.4052 2.62437 19.3621 2.78006 19.319C2.8023 19.319 2.84678 19.2974 2.86902 19.2974C2.89126 19.2974 2.9135 19.2974 2.9135 19.2759L3.69195 19.2328C3.78091 19.2328 3.89212 19.2543 4.00332 19.2543H4.04781C4.07005 19.2543 4.11453 19.2543 4.13677 19.2543H4.15901H4.2035H4.22574C4.29246 19.2543 4.33694 19.2543 4.40367 19.2543C5.73814 19.2543 7.07261 18.694 8.02899 17.7457C8.98536 16.7759 9.51915 15.4828 9.49691 14.1897V14.1466V14.1034C9.49691 14.0603 9.49691 14.0388 9.47467 13.9957C9.47467 13.9526 9.47467 13.9095 9.45243 13.8664V13.7802C9.45243 13.7155 9.43019 13.6509 9.43019 13.5862L9.49691 12.8319C9.49691 12.8103 9.49691 12.7888 9.51915 12.7672L9.54139 12.7241C9.58588 12.5733 9.60812 12.444 9.67484 12.2931C9.69708 12.2069 9.74156 12.1638 9.76381 12.0991C9.83053 11.9698 9.89725 11.8405 9.96398 11.7328C9.98622 11.6897 10.0307 11.625 10.0752 11.5819C10.2086 11.3879 10.3421 11.2371 10.4755 11.1078C11.1428 10.4612 12.0102 10.1164 12.9443 10.1164C13.8784 10.1164 14.7681 10.4612 15.4131 11.1078C16.7698 12.4224 16.7698 14.5776 15.4131 15.8922C15.2796 16.0216 15.1239 16.1509 14.9238 16.2802C14.857 16.3233 14.8126 16.3448 14.7458 16.3879C14.6124 16.4526 14.5012 16.5172 14.3677 16.5819C14.301 16.6034 14.2343 16.6466 14.1676 16.6681C14.0341 16.7112 13.9007 16.7543 13.745 16.7974L13.656 16.819C13.6338 16.819 13.6115 16.8405 13.5893 16.8405L12.8109 16.9052C12.7219 16.9052 12.6329 16.8836 12.5217 16.8836H12.455C12.4328 16.8836 12.3883 16.8836 12.366 16.8836H12.3438H12.2993H12.2771C12.2103 16.8836 12.1659 16.8836 12.0991 16.8836C10.7647 16.8836 9.43019 17.444 8.47381 18.3922C7.51744 19.3621 6.98365 20.6552 7.00589 21.9483V21.9914V22.0345C7.00589 22.0776 7.00589 22.0991 7.02813 22.1422C7.02813 22.1853 7.02813 22.2284 7.05037 22.2716C7.05037 22.2931 7.05037 22.3362 7.07262 22.3793C7.07262 22.4224 7.09486 22.4871 7.09486 22.5302V22.5517L7.02813 23.2845C7.02813 23.306 7.00589 23.3922 6.98365 23.4138C6.93917 23.5647 6.89469 23.7155 6.8502 23.8233C6.82796 23.8879 6.80572 23.9526 6.76124 24.0172C6.69451 24.1466 6.62779 24.2759 6.56107 24.4052C6.53883 24.4483 6.49434 24.5129 6.44986 24.5776C6.31641 24.75 6.18297 24.9224 6.04952 25.0517C5.40452 25.6552 4.51487 26 3.58074 26Z" fill="#3847EF"/>
<path d="M22.5075 26C21.5734 26 20.6837 25.6552 20.0387 25.0087C19.3715 24.3621 19.0156 23.5216 19.0156 22.6164C19.0156 21.7112 19.3715 20.8707 20.0387 20.2242C20.706 19.5776 21.5734 19.2328 22.5075 19.2328C23.4416 19.2328 24.309 19.5776 24.9763 20.2242C26.333 21.5388 26.333 23.694 24.9763 25.0087C24.309 25.6552 23.4416 26 22.5075 26Z" fill="#99E9A5"/>
<path d="M13.0329 26C12.0988 26 11.2091 25.6552 10.5641 25.0086C9.89688 24.3621 9.54102 23.5215 9.54102 22.6164C9.54102 21.7112 9.89688 20.8707 10.5641 20.2241C10.6976 20.0948 10.8532 19.9655 11.0534 19.8362C11.0979 19.7931 11.1646 19.7715 11.2091 19.7284C11.3426 19.6638 11.4538 19.5991 11.5872 19.5345C11.6539 19.5129 11.7207 19.4698 11.7874 19.4483C11.9208 19.4052 12.0543 19.3621 12.21 19.319L12.3434 19.2759L13.1441 19.2112C13.2331 19.2112 13.3443 19.2328 13.4332 19.2328H13.5C13.5444 19.2328 13.5667 19.2328 13.6112 19.2328C13.6334 19.2328 13.6334 19.2328 13.6556 19.2328H13.6779H13.7001C13.7668 19.2328 13.8113 19.2328 13.8781 19.2328C15.2125 19.2328 16.547 18.6724 17.5034 17.7241C18.4597 16.7543 18.9935 15.4612 18.9713 14.1681V14.0172L18.9491 13.9957V13.9741C18.9491 13.931 18.9491 13.9095 18.9491 13.8664L18.9268 13.7586C18.9268 13.694 18.9046 13.6293 18.9046 13.5862L18.9491 12.8534C18.9491 12.8319 18.9713 12.7457 18.9935 12.7241C19.038 12.5517 19.0825 12.4224 19.127 12.3146C19.1492 12.25 19.1715 12.1853 19.216 12.1207C19.2827 12.0129 19.3272 11.8836 19.4161 11.7543L19.4384 11.7328C19.4606 11.6896 19.4828 11.6465 19.5273 11.6034C19.6608 11.4095 19.7942 11.2586 19.9277 11.1293C20.5949 10.4828 21.4623 10.1379 22.3964 10.1379C23.3306 10.1379 24.198 10.4828 24.8652 11.1293C26.2219 12.444 26.2219 14.5991 24.8652 15.9138C24.7318 16.0431 24.5761 16.1724 24.3759 16.3017C24.3314 16.3233 24.3092 16.3448 24.2647 16.3664L24.198 16.4095C24.0868 16.4741 23.9533 16.5388 23.8199 16.6034C23.7532 16.625 23.6864 16.6681 23.6197 16.6897C23.4863 16.7328 23.3528 16.7759 23.1971 16.819C23.1527 16.819 23.1304 16.8405 23.1082 16.8405C23.0859 16.8405 23.0637 16.8405 23.0637 16.8621L22.2852 16.9052C22.174 16.9052 22.0406 16.8836 21.9294 16.8621C21.8849 16.8621 21.8627 16.8621 21.8182 16.8621C21.7959 16.8621 21.7959 16.8621 21.7737 16.8621H21.707C21.6402 16.8621 21.5958 16.8621 21.529 16.8621C20.1946 16.8621 18.8601 17.4224 17.9037 18.3707C16.9473 19.3405 16.4136 20.6336 16.458 21.9267V21.9698V22.0129C16.458 22.056 16.458 22.0991 16.4803 22.1207C16.4803 22.1638 16.4803 22.2069 16.4803 22.2284C16.4803 22.25 16.4803 22.2931 16.5025 22.3362C16.5025 22.4009 16.5248 22.444 16.5248 22.5086L16.458 23.2629C16.458 23.2845 16.4136 23.3707 16.4136 23.3707C16.3691 23.5215 16.3246 23.6724 16.2801 23.8017C16.2579 23.8664 16.2356 23.931 16.1911 23.9741V23.9957C16.1244 24.125 16.0577 24.2328 15.991 24.3621C15.9465 24.4267 15.9242 24.4698 15.8798 24.5345C15.7463 24.7284 15.6129 24.8793 15.4794 25.0086C14.8344 25.6552 13.967 26 13.0329 26Z" fill="#99E9A5"/>
<path d="M3.58074 16.8621C2.64661 16.8621 1.7792 16.4957 1.11196 15.8707C0.444727 15.2241 0.0888672 14.3836 0.0888672 13.4785C0.0888672 12.5733 0.444727 11.7328 1.11196 11.0862C1.24541 10.9569 1.4011 10.8276 1.60127 10.6983C1.64575 10.6552 1.71248 10.6336 1.7792 10.5905C1.89041 10.5259 2.02385 10.4612 2.1573 10.3966C2.22403 10.375 2.29075 10.3319 2.35747 10.3103C2.49092 10.2672 2.62437 10.2241 2.78006 10.2026L2.86902 10.181C2.89126 10.181 2.89126 10.181 2.9135 10.1595L3.71419 10.0948C3.8254 10.0948 3.9366 10.1164 4.04781 10.1379H4.07005C4.11453 10.1379 4.13677 10.1379 4.18125 10.1379C4.2035 10.1379 4.2035 10.1379 4.22574 10.1379H4.27022H4.29246C4.35918 10.1379 4.40367 10.1379 4.47039 10.1379C5.80486 10.1379 7.13934 9.57759 8.09571 8.62931C9.05209 7.65948 9.58588 6.36638 9.54139 5.07328V5.03017V4.98707C9.54139 4.94397 9.54139 4.90086 9.51915 4.85776C9.51915 4.81466 9.51915 4.7931 9.51915 4.75L9.49691 4.66379C9.49691 4.59914 9.47467 4.53448 9.47467 4.46983L9.51915 3.75862V3.73707V3.71552C9.51915 3.69397 9.54139 3.60776 9.54139 3.60776C9.58588 3.43535 9.63036 3.28448 9.67484 3.17672C9.69708 3.11207 9.74156 3.04741 9.76381 2.98276C9.83053 2.85345 9.89725 2.74569 9.96398 2.61638L9.98622 2.59483C10.0085 2.57328 10.0529 2.50862 10.0752 2.46552C10.2086 2.27155 10.3421 2.12069 10.4755 1.99138C11.1428 1.34483 12.0102 1 12.9443 1C13.8784 1 14.7681 1.34483 15.4131 1.99138C16.7698 3.30604 16.7698 5.46121 15.4131 6.77586C15.2796 6.90517 15.1239 7.03448 14.9238 7.16379C14.8793 7.2069 14.8348 7.22845 14.7681 7.25L14.7458 7.27155C14.6124 7.33621 14.5012 7.40086 14.3677 7.46552C14.301 7.48707 14.2343 7.53017 14.1676 7.55173C14.0341 7.59483 13.9007 7.63793 13.745 7.68104C13.7227 7.68104 13.6783 7.70259 13.656 7.70259C13.6338 7.70259 13.6115 7.70259 13.6115 7.72414L12.8331 7.76724C12.7441 7.76724 12.6329 7.74569 12.5217 7.74569H12.4772C12.4328 7.74569 12.4105 7.74569 12.366 7.74569C12.3438 7.74569 12.3438 7.74569 12.3215 7.74569H12.2993H12.2548C12.1881 7.74569 12.1436 7.74569 12.0769 7.74569C10.7424 7.74569 9.40794 8.30604 8.45157 9.25431C7.4952 10.2241 6.96141 11.5172 6.98365 12.8103V12.8535V12.8966C6.98365 12.9397 6.98365 12.9828 7.00589 13.0043C7.00589 13.0474 7.00589 13.0905 7.00589 13.1336C7.00589 13.1552 7.00589 13.1983 7.02813 13.2414C7.02813 13.306 7.05037 13.3491 7.05037 13.4138L6.98365 14.1466C6.98365 14.1681 6.98365 14.1897 6.96141 14.2112L6.93917 14.2759C6.89469 14.4483 6.8502 14.5776 6.80572 14.7069C6.78348 14.7716 6.739 14.8362 6.71676 14.9009C6.65003 15.0302 6.58331 15.1379 6.51658 15.2672C6.4721 15.3319 6.44986 15.375 6.40538 15.4397C6.27193 15.6336 6.13848 15.7845 6.00504 15.9138C5.40452 16.4957 4.51487 16.8621 3.58074 16.8621Z" fill="#3847EF"/>
</g>
<path d="M37.04 24V3H40.88V11.73H50.3V3H54.14V24H50.3V14.85H40.88V24H37.04ZM64.7616 24.36C63.2616 24.36 61.9316 24.04 60.7716 23.4C59.6116 22.76 58.7016 21.86 58.0416 20.7C57.3816 19.54 57.0516 18.2 57.0516 16.68C57.0516 15.14 57.3716 13.77 58.0116 12.57C58.6716 11.37 59.5716 10.44 60.7116 9.78C61.8716 9.1 63.2316 8.76 64.7916 8.76C66.2516 8.76 67.5416 9.08 68.6616 9.72C69.7816 10.36 70.6516 11.24 71.2716 12.36C71.9116 13.46 72.2316 14.69 72.2316 16.05C72.2316 16.27 72.2216 16.5 72.2016 16.74C72.2016 16.98 72.1916 17.23 72.1716 17.49H60.8616C60.9416 18.65 61.3416 19.56 62.0616 20.22C62.8016 20.88 63.6916 21.21 64.7316 21.21C65.5116 21.21 66.1616 21.04 66.6816 20.7C67.2216 20.34 67.6216 19.88 67.8816 19.32H71.7816C71.5016 20.26 71.0316 21.12 70.3716 21.9C69.7316 22.66 68.9316 23.26 67.9716 23.7C67.0316 24.14 65.9616 24.36 64.7616 24.36ZM64.7916 11.88C63.8516 11.88 63.0216 12.15 62.3016 12.69C61.5816 13.21 61.1216 14.01 60.9216 15.09H68.3316C68.2716 14.11 67.9116 13.33 67.2516 12.75C66.5916 12.17 65.7716 11.88 64.7916 11.88ZM74.8613 24V2.4H78.7013V24H74.8613ZM87.155 24.36C85.875 24.36 84.825 24.16 84.005 23.76C83.185 23.34 82.575 22.79 82.175 22.11C81.775 21.43 81.575 20.68 81.575 19.86C81.575 18.48 82.115 17.36 83.195 16.5C84.275 15.64 85.895 15.21 88.055 15.21H91.835V14.85C91.835 13.83 91.545 13.08 90.965 12.6C90.385 12.12 89.665 11.88 88.805 11.88C88.025 11.88 87.345 12.07 86.765 12.45C86.185 12.81 85.825 13.35 85.685 14.07H81.935C82.035 12.99 82.395 12.05 83.015 11.25C83.655 10.45 84.475 9.84 85.475 9.42C86.475 8.98 87.595 8.76 88.835 8.76C90.955 8.76 92.625 9.29 93.845 10.35C95.065 11.41 95.675 12.91 95.675 14.85V24H92.405L92.045 21.6C91.605 22.4 90.985 23.06 90.185 23.58C89.405 24.1 88.395 24.36 87.155 24.36ZM88.025 21.36C89.125 21.36 89.975 21 90.575 20.28C91.195 19.56 91.585 18.67 91.745 17.61H88.475C87.455 17.61 86.725 17.8 86.285 18.18C85.845 18.54 85.625 18.99 85.625 19.53C85.625 20.11 85.845 20.56 86.285 20.88C86.725 21.2 87.305 21.36 88.025 21.36ZM97.3295 24L102.729 16.56L97.3295 9.12H101.439L105.219 14.4L108.969 9.12H113.109L107.679 16.56L113.109 24H108.969L105.219 18.72L101.439 24H97.3295Z" fill="#0F1928"/>
<defs>
<clipPath id="clip0_467_282">
<rect width="26" height="25" fill="white" transform="translate(0 1)"/>
</clipPath>
</defs>
</svg>
